<svg xmlns="http://www.w3.org/2000/svg" xmlns:xlink="http://www.w3.org/1999/xlink" width="500" zoomAndPan="magnify" viewBox="0 0 375 374.999991" height="500" preserveAspectRatio="xMidYMid meet" version="1.0"><defs><g/><clipPath id="2a24292060"><path d="M 234.460938 200.09375 L 275.761719 200.09375 L 275.761719 241.394531 L 234.460938 241.394531 Z M 234.460938 200.09375 " clip-rule="nonzero"/></clipPath><clipPath id="cf8b0c34ed"><path d="M 255.113281 200.09375 C 243.707031 200.09375 234.460938 209.339844 234.460938 220.746094 C 234.460938 232.148438 243.707031 241.394531 255.113281 241.394531 C 266.515625 241.394531 275.761719 232.148438 275.761719 220.746094 C 275.761719 209.339844 266.515625 200.09375 255.113281 200.09375 Z M 255.113281 200.09375 " clip-rule="nonzero"/></clipPath><clipPath id="99dcadb06f"><path d="M 68.042969 65.296875 L 141.863281 65.296875 L 141.863281 139.117188 L 68.042969 139.117188 Z M 68.042969 65.296875 " clip-rule="nonzero"/></clipPath><clipPath id="bc7cc47eb9"><path d="M 104.953125 65.296875 C 84.566406 65.296875 68.042969 81.820312 68.042969 102.207031 C 68.042969 122.59375 84.566406 139.117188 104.953125 139.117188 C 125.335938 139.117188 141.863281 122.59375 141.863281 102.207031 C 141.863281 81.820312 125.335938 65.296875 104.953125 65.296875 Z M 104.953125 65.296875 " clip-rule="nonzero"/></clipPath><clipPath id="1eb8f6e2ec"><path d="M 246.390625 212.023438 L 263.835938 212.023438 L 263.835938 229.46875 L 246.390625 229.46875 Z M 246.390625 212.023438 " clip-rule="nonzero"/></clipPath><clipPath id="c9327b6c30"><path d="M 255.113281 212.023438 C 250.292969 212.023438 246.390625 215.925781 246.390625 220.746094 C 246.390625 225.5625 250.292969 229.46875 255.113281 229.46875 C 259.929688 229.46875 263.835938 225.5625 263.835938 220.746094 C 263.835938 215.925781 259.929688 212.023438 255.113281 212.023438 Z M 255.113281 212.023438 " clip-rule="nonzero"/></clipPath></defs><rect x="-37.5" width="450" fill="#ffffff" y="-37.499999" height="449.999989" fill-opacity="1"/><rect x="-37.5" width="450" fill="#ffffff" y="-37.499999" height="449.999989" fill-opacity="1"/><g fill="#000000" fill-opacity="1"><g transform="translate(97.013602, 221.207659)"><g><path d="M 35.703125 -73.703125 L 35.703125 0 L 8.640625 0 L 8.640625 -118.75 L 35.703125 -118.75 L 82.90625 -45.046875 L 83.203125 -45.046875 L 83.203125 -118.75 L 110.25 -118.75 L 110.25 0 L 83.203125 0 L 35.984375 -73.703125 Z M 35.703125 -73.703125 "/></g></g></g><g fill="#000000" fill-opacity="1"><g transform="translate(188.480457, 221.207659)"><g><path d="M 60.3125 -118.75 L 60.3125 -33.53125 C 60.3125 -21.925781 57.117188 -13.078125 50.734375 -6.984375 C 44.359375 -0.890625 35.21875 2.15625 23.3125 2.15625 C 20.144531 2.15625 17.023438 1.769531 13.953125 1 C 10.890625 0.238281 8.300781 -0.691406 6.1875 -1.796875 C 4.070312 -2.898438 2.175781 -4.023438 0.5 -5.171875 C -1.175781 -6.328125 -2.398438 -7.289062 -3.171875 -8.0625 L -4.46875 -9.21875 L 4.171875 -31.8125 C 9.835938 -26.4375 14.972656 -23.75 19.578125 -23.75 C 23.703125 -23.75 27.007812 -25.113281 29.5 -27.84375 C 32 -30.582031 33.25 -34.785156 33.25 -40.453125 L 33.25 -118.75 Z M 60.3125 -118.75 "/></g></g></g><g clip-path="url(#2a24292060)"><g clip-path="url(#cf8b0c34ed)"><path fill="#ffffff" d="M 234.460938 200.09375 L 275.761719 200.09375 L 275.761719 241.394531 L 234.460938 241.394531 Z M 234.460938 200.09375 " fill-opacity="1" fill-rule="nonzero"/></g></g><g clip-path="url(#99dcadb06f)"><g clip-path="url(#bc7cc47eb9)"><path fill="#ffffff" d="M 68.042969 65.296875 L 141.863281 65.296875 L 141.863281 139.117188 L 68.042969 139.117188 Z M 68.042969 65.296875 " fill-opacity="1" fill-rule="nonzero"/></g></g><g clip-path="url(#1eb8f6e2ec)"><g clip-path="url(#c9327b6c30)"><path fill="#000000" d="M 246.390625 212.023438 L 263.835938 212.023438 L 263.835938 229.46875 L 246.390625 229.46875 Z M 246.390625 212.023438 " fill-opacity="1" fill-rule="nonzero"/></g></g><g fill="#000000" fill-opacity="1"><g transform="translate(103.437191, 249.18007)"><g><path d="M 8.984375 -11.96875 L 11.53125 -11.96875 L 11.53125 0 L 9.09375 0 L 3.34375 -7.8125 L 3.34375 0 L 0.796875 0 L 0.796875 -11.96875 L 3.1875 -11.96875 L 8.984375 -4.09375 Z M 8.984375 -11.96875 "/></g></g></g><g fill="#000000" fill-opacity="1"><g transform="translate(118.070652, 249.18007)"><g><path d="M 7.640625 -11.96875 L 7.640625 -4.28125 C 7.640625 -3.789062 7.609375 -3.316406 7.546875 -2.859375 C 7.484375 -2.398438 7.300781 -1.957031 7 -1.53125 C 6.613281 -0.976562 6.144531 -0.5625 5.59375 -0.28125 C 5.039062 -0.0078125 4.441406 0.125 3.796875 0.125 C 3.359375 0.125 2.941406 0.0507812 2.546875 -0.09375 C 2.160156 -0.25 1.804688 -0.453125 1.484375 -0.703125 C 1.171875 -0.953125 0.894531 -1.25 0.65625 -1.59375 C 0.414062 -1.9375 0.238281 -2.304688 0.125 -2.703125 L 2.328125 -3.4375 C 2.421875 -3.113281 2.59375 -2.84375 2.84375 -2.625 C 3.09375 -2.414062 3.390625 -2.3125 3.734375 -2.3125 C 4.117188 -2.3125 4.421875 -2.441406 4.640625 -2.703125 C 4.867188 -2.972656 5.007812 -3.273438 5.0625 -3.609375 C 5.0625 -3.648438 5.0625 -3.804688 5.0625 -4.078125 C 5.070312 -4.347656 5.078125 -4.679688 5.078125 -5.078125 C 5.078125 -5.484375 5.078125 -5.9375 5.078125 -6.4375 C 5.078125 -6.9375 5.078125 -7.441406 5.078125 -7.953125 C 5.078125 -9.140625 5.070312 -10.476562 5.0625 -11.96875 Z M 7.640625 -11.96875 "/></g></g></g><g fill="#000000" fill-opacity="1"><g transform="translate(128.788497, 249.18007)"><g/></g></g><g fill="#000000" fill-opacity="1"><g transform="translate(135.742638, 249.18007)"><g><path d="M 0.8125 -11.96875 L 8.28125 -11.96875 L 8.28125 -9.640625 L 3.375 -9.640625 L 3.375 -7.46875 L 7.6875 -7.46875 L 7.6875 -5.140625 L 3.375 -5.140625 L 3.375 -2.3125 L 8.28125 -2.3125 L 8.28125 0 L 0.8125 0 Z M 0.8125 -11.96875 "/></g></g></g><g fill="#000000" fill-opacity="1"><g transform="translate(147.152472, 249.18007)"><g><path d="M 3.359375 -2.3125 L 8.265625 -2.3125 L 8.265625 0 L 0.796875 0 L 0.796875 -11.96875 L 3.359375 -11.96875 Z M 3.359375 -2.3125 "/></g></g></g><g fill="#000000" fill-opacity="1"><g transform="translate(157.90408, 249.18007)"><g><path d="M 0.8125 -11.96875 L 8.28125 -11.96875 L 8.28125 -9.640625 L 3.375 -9.640625 L 3.375 -7.46875 L 7.6875 -7.46875 L 7.6875 -5.140625 L 3.375 -5.140625 L 3.375 -2.3125 L 8.28125 -2.3125 L 8.28125 0 L 0.8125 0 Z M 0.8125 -11.96875 "/></g></g></g><g fill="#000000" fill-opacity="1"><g transform="translate(169.313914, 249.18007)"><g><path d="M 6.421875 -2.328125 C 6.960938 -2.328125 7.492188 -2.453125 8.015625 -2.703125 C 8.535156 -2.953125 9.054688 -3.367188 9.578125 -3.953125 L 11.234375 -2.375 C 10.578125 -1.519531 9.820312 -0.875 8.96875 -0.4375 C 8.113281 0 7.238281 0.21875 6.34375 0.21875 C 5.53125 0.21875 4.769531 0.0507812 4.0625 -0.28125 C 3.351562 -0.613281 2.738281 -1.0625 2.21875 -1.625 C 1.695312 -2.1875 1.285156 -2.835938 0.984375 -3.578125 C 0.691406 -4.328125 0.546875 -5.125 0.546875 -5.96875 C 0.546875 -6.8125 0.695312 -7.601562 1 -8.34375 C 1.3125 -9.09375 1.726562 -9.75 2.25 -10.3125 C 2.78125 -10.875 3.40625 -11.316406 4.125 -11.640625 C 4.851562 -11.972656 5.617188 -12.140625 6.421875 -12.140625 C 7.179688 -12.140625 7.898438 -12 8.578125 -11.71875 C 9.265625 -11.4375 9.929688 -10.96875 10.578125 -10.3125 L 9.09375 -8.5 C 8.625 -8.9375 8.175781 -9.234375 7.75 -9.390625 C 7.332031 -9.546875 6.890625 -9.625 6.421875 -9.625 C 5.960938 -9.625 5.523438 -9.523438 5.109375 -9.328125 C 4.703125 -9.140625 4.347656 -8.878906 4.046875 -8.546875 C 3.742188 -8.222656 3.503906 -7.835938 3.328125 -7.390625 C 3.160156 -6.953125 3.078125 -6.476562 3.078125 -5.96875 C 3.078125 -5.46875 3.160156 -4.992188 3.328125 -4.546875 C 3.503906 -4.109375 3.742188 -3.722656 4.046875 -3.390625 C 4.347656 -3.066406 4.703125 -2.804688 5.109375 -2.609375 C 5.523438 -2.421875 5.960938 -2.328125 6.421875 -2.328125 Z M 6.421875 -2.328125 "/></g></g></g><g fill="#000000" fill-opacity="1"><g transform="translate(183.356654, 249.18007)"><g><path d="M 0.390625 -11.96875 L 9.046875 -11.96875 L 9.046875 -9.640625 L 5.984375 -9.640625 L 5.984375 0 L 3.4375 0 L 3.4375 -9.640625 L 0.390625 -9.640625 Z M 0.390625 -11.96875 "/></g></g></g><g fill="#000000" fill-opacity="1"><g transform="translate(195.104037, 249.18007)"><g><path d="M 9.40625 -8.40625 C 9.40625 -8.019531 9.347656 -7.65625 9.234375 -7.3125 C 9.128906 -6.96875 8.976562 -6.648438 8.78125 -6.359375 C 8.59375 -6.078125 8.363281 -5.828125 8.09375 -5.609375 C 7.820312 -5.390625 7.53125 -5.210938 7.21875 -5.078125 L 11.1875 0 L 8.203125 0 L 4.5 -4.828125 L 3.359375 -4.828125 L 3.359375 0 L 0.796875 0 L 0.796875 -11.96875 L 5.953125 -11.96875 C 6.429688 -11.96875 6.878906 -11.875 7.296875 -11.6875 C 7.722656 -11.5 8.085938 -11.242188 8.390625 -10.921875 C 8.703125 -10.609375 8.945312 -10.234375 9.125 -9.796875 C 9.3125 -9.359375 9.40625 -8.894531 9.40625 -8.40625 Z M 5.640625 -7.15625 C 5.960938 -7.15625 6.238281 -7.273438 6.46875 -7.515625 C 6.707031 -7.753906 6.828125 -8.050781 6.828125 -8.40625 C 6.828125 -8.738281 6.707031 -9.023438 6.46875 -9.265625 C 6.238281 -9.515625 5.960938 -9.640625 5.640625 -9.640625 L 3.359375 -9.640625 L 3.359375 -7.15625 Z M 5.640625 -7.15625 "/></g></g></g><g fill="#000000" fill-opacity="1"><g transform="translate(209.011757, 249.18007)"><g><path d="M 6.453125 -12.140625 C 7.253906 -12.140625 8.015625 -11.972656 8.734375 -11.640625 C 9.460938 -11.316406 10.09375 -10.875 10.625 -10.3125 C 11.15625 -9.75 11.578125 -9.09375 11.890625 -8.34375 C 12.203125 -7.601562 12.359375 -6.8125 12.359375 -5.96875 C 12.359375 -5.132812 12.203125 -4.34375 11.890625 -3.59375 C 11.578125 -2.84375 11.15625 -2.1875 10.625 -1.625 C 10.09375 -1.0625 9.460938 -0.613281 8.734375 -0.28125 C 8.015625 0.0507812 7.253906 0.21875 6.453125 0.21875 C 5.640625 0.21875 4.875 0.0507812 4.15625 -0.28125 C 3.4375 -0.613281 2.8125 -1.0625 2.28125 -1.625 C 1.75 -2.1875 1.328125 -2.84375 1.015625 -3.59375 C 0.710938 -4.34375 0.5625 -5.132812 0.5625 -5.96875 C 0.5625 -6.8125 0.710938 -7.601562 1.015625 -8.34375 C 1.328125 -9.09375 1.75 -9.75 2.28125 -10.3125 C 2.8125 -10.875 3.4375 -11.316406 4.15625 -11.640625 C 4.875 -11.972656 5.640625 -12.140625 6.453125 -12.140625 Z M 6.453125 -2.328125 C 6.910156 -2.328125 7.34375 -2.421875 7.75 -2.609375 C 8.15625 -2.804688 8.507812 -3.066406 8.8125 -3.390625 C 9.113281 -3.722656 9.347656 -4.109375 9.515625 -4.546875 C 9.691406 -4.992188 9.78125 -5.46875 9.78125 -5.96875 C 9.78125 -6.476562 9.691406 -6.953125 9.515625 -7.390625 C 9.347656 -7.835938 9.113281 -8.226562 8.8125 -8.5625 C 8.507812 -8.894531 8.15625 -9.15625 7.75 -9.34375 C 7.34375 -9.539062 6.910156 -9.640625 6.453125 -9.640625 C 5.984375 -9.640625 5.546875 -9.539062 5.140625 -9.34375 C 4.742188 -9.15625 4.390625 -8.894531 4.078125 -8.5625 C 3.773438 -8.226562 3.535156 -7.835938 3.359375 -7.390625 C 3.191406 -6.953125 3.109375 -6.476562 3.109375 -5.96875 C 3.109375 -5.46875 3.191406 -4.992188 3.359375 -4.546875 C 3.535156 -4.109375 3.773438 -3.722656 4.078125 -3.390625 C 4.390625 -3.066406 4.742188 -2.804688 5.140625 -2.609375 C 5.546875 -2.421875 5.984375 -2.328125 6.453125 -2.328125 Z M 6.453125 -2.328125 "/></g></g></g><g fill="#000000" fill-opacity="1"><g transform="translate(224.235941, 249.18007)"><g><path d="M 8.984375 -11.96875 L 11.53125 -11.96875 L 11.53125 0 L 9.09375 0 L 3.34375 -7.8125 L 3.34375 0 L 0.796875 0 L 0.796875 -11.96875 L 3.1875 -11.96875 L 8.984375 -4.09375 Z M 8.984375 -11.96875 "/></g></g></g><g fill="#000000" fill-opacity="1"><g transform="translate(238.869407, 249.18007)"><g><path d="M 5.140625 -11.96875 L 5.140625 -9.796875 L 4.25 -9.796875 L 4.25 -2.140625 L 5.140625 -2.140625 L 5.140625 0 L 0.796875 0 L 0.796875 -2.140625 L 1.6875 -2.140625 L 1.6875 -9.796875 L 0.796875 -9.796875 L 0.796875 -11.96875 Z M 5.140625 -11.96875 "/></g></g></g><g fill="#000000" fill-opacity="1"><g transform="translate(247.106251, 249.18007)"><g><path d="M 6.421875 -2.328125 C 6.960938 -2.328125 7.492188 -2.453125 8.015625 -2.703125 C 8.535156 -2.953125 9.054688 -3.367188 9.578125 -3.953125 L 11.234375 -2.375 C 10.578125 -1.519531 9.820312 -0.875 8.96875 -0.4375 C 8.113281 0 7.238281 0.21875 6.34375 0.21875 C 5.53125 0.21875 4.769531 0.0507812 4.0625 -0.28125 C 3.351562 -0.613281 2.738281 -1.0625 2.21875 -1.625 C 1.695312 -2.1875 1.285156 -2.835938 0.984375 -3.578125 C 0.691406 -4.328125 0.546875 -5.125 0.546875 -5.96875 C 0.546875 -6.8125 0.695312 -7.601562 1 -8.34375 C 1.3125 -9.09375 1.726562 -9.75 2.25 -10.3125 C 2.78125 -10.875 3.40625 -11.316406 4.125 -11.640625 C 4.851562 -11.972656 5.617188 -12.140625 6.421875 -12.140625 C 7.179688 -12.140625 7.898438 -12 8.578125 -11.71875 C 9.265625 -11.4375 9.929688 -10.96875 10.578125 -10.3125 L 9.09375 -8.5 C 8.625 -8.9375 8.175781 -9.234375 7.75 -9.390625 C 7.332031 -9.546875 6.890625 -9.625 6.421875 -9.625 C 5.960938 -9.625 5.523438 -9.523438 5.109375 -9.328125 C 4.703125 -9.140625 4.347656 -8.878906 4.046875 -8.546875 C 3.742188 -8.222656 3.503906 -7.835938 3.328125 -7.390625 C 3.160156 -6.953125 3.078125 -6.476562 3.078125 -5.96875 C 3.078125 -5.46875 3.160156 -4.992188 3.328125 -4.546875 C 3.503906 -4.109375 3.742188 -3.722656 4.046875 -3.390625 C 4.347656 -3.066406 4.703125 -2.804688 5.109375 -2.609375 C 5.523438 -2.421875 5.960938 -2.328125 6.421875 -2.328125 Z M 6.421875 -2.328125 "/></g></g></g><g fill="#000000" fill-opacity="1"><g transform="translate(261.148996, 249.18007)"><g><path d="M 8.40625 -6.15625 C 8.875 -5.875 9.234375 -5.515625 9.484375 -5.078125 C 9.734375 -4.640625 9.859375 -4.132812 9.859375 -3.5625 C 9.859375 -3.019531 9.726562 -2.515625 9.46875 -2.046875 C 9.207031 -1.578125 8.84375 -1.164062 8.375 -0.8125 C 7.945312 -0.488281 7.457031 -0.238281 6.90625 -0.0625 C 6.363281 0.113281 5.789062 0.207031 5.1875 0.21875 C 4.570312 0.21875 3.988281 0.132812 3.4375 -0.03125 C 2.882812 -0.195312 2.394531 -0.453125 1.96875 -0.796875 C 1.332031 -1.273438 0.894531 -1.859375 0.65625 -2.546875 L 3.015625 -3.640625 C 3.015625 -3.523438 3.050781 -3.382812 3.125 -3.21875 C 3.207031 -3.050781 3.332031 -2.890625 3.5 -2.734375 C 3.675781 -2.578125 3.898438 -2.441406 4.171875 -2.328125 C 4.441406 -2.210938 4.769531 -2.15625 5.15625 -2.15625 C 5.476562 -2.15625 5.757812 -2.191406 6 -2.265625 C 6.238281 -2.347656 6.4375 -2.445312 6.59375 -2.5625 C 6.757812 -2.6875 6.882812 -2.820312 6.96875 -2.96875 C 7.0625 -3.125 7.109375 -3.28125 7.109375 -3.4375 C 7.109375 -3.625 7.046875 -3.796875 6.921875 -3.953125 C 6.804688 -4.109375 6.625 -4.226562 6.375 -4.3125 C 5.925781 -4.476562 5.453125 -4.613281 4.953125 -4.71875 C 4.453125 -4.820312 3.960938 -4.953125 3.484375 -5.109375 C 3.015625 -5.273438 2.578125 -5.492188 2.171875 -5.765625 C 1.765625 -6.035156 1.445312 -6.414062 1.21875 -6.90625 C 1 -7.332031 0.890625 -7.785156 0.890625 -8.265625 C 0.890625 -8.804688 1.015625 -9.328125 1.265625 -9.828125 C 1.523438 -10.335938 1.875 -10.769531 2.3125 -11.125 C 2.726562 -11.445312 3.191406 -11.695312 3.703125 -11.875 C 4.222656 -12.050781 4.769531 -12.140625 5.34375 -12.140625 C 5.914062 -12.140625 6.460938 -12.050781 6.984375 -11.875 C 7.515625 -11.707031 7.988281 -11.460938 8.40625 -11.140625 C 8.8125 -10.835938 9.128906 -10.484375 9.359375 -10.078125 L 7.4375 -8.765625 C 7.207031 -9.085938 6.914062 -9.347656 6.5625 -9.546875 C 6.207031 -9.742188 5.804688 -9.84375 5.359375 -9.84375 C 4.753906 -9.84375 4.285156 -9.707031 3.953125 -9.4375 C 3.617188 -9.164062 3.453125 -8.8125 3.453125 -8.375 C 3.453125 -8.164062 3.546875 -7.984375 3.734375 -7.828125 C 3.921875 -7.671875 4.160156 -7.53125 4.453125 -7.40625 C 4.753906 -7.28125 5.09375 -7.171875 5.46875 -7.078125 C 5.84375 -6.984375 6.210938 -6.890625 6.578125 -6.796875 C 6.941406 -6.703125 7.285156 -6.601562 7.609375 -6.5 C 7.929688 -6.394531 8.195312 -6.28125 8.40625 -6.15625 Z M 8.40625 -6.15625 "/></g></g></g><g fill="#373737" fill-opacity="1"><g transform="translate(151.810247, 261.507227)"><g><path d="M 4.703125 -1.671875 C 4.703125 -1.441406 4.660156 -1.222656 4.578125 -1.015625 C 4.492188 -0.816406 4.375 -0.640625 4.21875 -0.484375 C 4.0625 -0.335938 3.878906 -0.21875 3.671875 -0.125 C 3.472656 -0.0390625 3.257812 0 3.03125 0 L 0.46875 0 L 0.46875 -5.984375 L 2.8125 -5.984375 C 3.007812 -5.984375 3.195312 -5.941406 3.375 -5.859375 C 3.5625 -5.785156 3.722656 -5.679688 3.859375 -5.546875 C 3.992188 -5.410156 4.097656 -5.25 4.171875 -5.0625 C 4.253906 -4.882812 4.296875 -4.691406 4.296875 -4.484375 C 4.296875 -4.222656 4.253906 -3.984375 4.171875 -3.765625 C 4.085938 -3.554688 3.945312 -3.378906 3.75 -3.234375 C 4.070312 -3.117188 4.3125 -2.914062 4.46875 -2.625 C 4.625 -2.34375 4.703125 -2.023438 4.703125 -1.671875 Z M 1.34375 -3.5625 C 1.570312 -3.550781 1.78125 -3.546875 1.96875 -3.546875 L 2.8125 -3.546875 C 3.03125 -3.546875 3.210938 -3.625 3.359375 -3.78125 C 3.503906 -3.945312 3.578125 -4.144531 3.578125 -4.375 C 3.578125 -4.601562 3.503906 -4.796875 3.359375 -4.953125 C 3.210938 -5.109375 3.03125 -5.1875 2.8125 -5.1875 L 1.34375 -5.1875 Z M 1.34375 -0.8125 C 1.382812 -0.8125 1.472656 -0.8125 1.609375 -0.8125 L 3.03125 -0.8125 C 3.144531 -0.8125 3.253906 -0.835938 3.359375 -0.890625 C 3.460938 -0.941406 3.550781 -1.007812 3.625 -1.09375 C 3.707031 -1.175781 3.769531 -1.273438 3.8125 -1.390625 C 3.863281 -1.515625 3.890625 -1.644531 3.890625 -1.78125 C 3.890625 -1.914062 3.863281 -2.039062 3.8125 -2.15625 C 3.769531 -2.269531 3.707031 -2.367188 3.625 -2.453125 C 3.550781 -2.546875 3.460938 -2.613281 3.359375 -2.65625 C 3.253906 -2.707031 3.144531 -2.734375 3.03125 -2.734375 L 1.34375 -2.734375 Z M 1.34375 -0.8125 "/></g></g></g><g fill="#373737" fill-opacity="1"><g transform="translate(161.475063, 261.507227)"><g><path d="M 4.875 -2.125 C 4.875 -1.8125 4.8125 -1.519531 4.6875 -1.25 C 4.570312 -0.988281 4.414062 -0.757812 4.21875 -0.5625 C 4.03125 -0.363281 3.800781 -0.207031 3.53125 -0.09375 C 3.269531 0.0195312 2.988281 0.078125 2.6875 0.078125 C 2.382812 0.078125 2.097656 0.0195312 1.828125 -0.09375 C 1.566406 -0.207031 1.335938 -0.363281 1.140625 -0.5625 C 0.941406 -0.757812 0.785156 -0.988281 0.671875 -1.25 C 0.554688 -1.519531 0.5 -1.8125 0.5 -2.125 L 0.5 -5.984375 L 1.375 -5.984375 L 1.375 -2.125 C 1.375 -1.9375 1.40625 -1.757812 1.46875 -1.59375 C 1.539062 -1.4375 1.632812 -1.296875 1.75 -1.171875 C 1.875 -1.046875 2.015625 -0.945312 2.171875 -0.875 C 2.328125 -0.800781 2.5 -0.765625 2.6875 -0.765625 C 2.863281 -0.765625 3.03125 -0.800781 3.1875 -0.875 C 3.34375 -0.945312 3.476562 -1.046875 3.59375 -1.171875 C 3.71875 -1.296875 3.8125 -1.4375 3.875 -1.59375 C 3.945312 -1.757812 3.984375 -1.9375 3.984375 -2.125 L 3.984375 -5.984375 L 4.875 -5.984375 Z M 4.875 -2.125 "/></g></g></g><g fill="#373737" fill-opacity="1"><g transform="translate(171.426862, 261.507227)"><g><path d="M 4.46875 -1.671875 C 4.46875 -1.421875 4.414062 -1.1875 4.3125 -0.96875 C 4.207031 -0.757812 4.054688 -0.570312 3.859375 -0.40625 C 3.472656 -0.0820312 2.976562 0.078125 2.375 0.078125 C 1.894531 0.078125 1.460938 -0.015625 1.078125 -0.203125 C 0.703125 -0.398438 0.425781 -0.660156 0.25 -0.984375 L 1 -1.375 C 1.113281 -1.175781 1.289062 -1.019531 1.53125 -0.90625 C 1.769531 -0.800781 2.050781 -0.75 2.375 -0.75 C 3.1875 -0.75 3.59375 -1.054688 3.59375 -1.671875 C 3.59375 -1.796875 3.570312 -1.898438 3.53125 -1.984375 C 3.488281 -2.066406 3.425781 -2.144531 3.34375 -2.21875 C 3.132812 -2.382812 2.769531 -2.535156 2.25 -2.671875 C 1.9375 -2.753906 1.671875 -2.84375 1.453125 -2.9375 C 1.234375 -3.03125 1.050781 -3.144531 0.90625 -3.28125 C 0.550781 -3.5625 0.375 -3.9375 0.375 -4.40625 C 0.375 -4.644531 0.421875 -4.867188 0.515625 -5.078125 C 0.609375 -5.285156 0.738281 -5.460938 0.90625 -5.609375 C 1.082031 -5.765625 1.285156 -5.878906 1.515625 -5.953125 C 1.742188 -6.023438 2 -6.0625 2.28125 -6.0625 C 2.695312 -6.0625 3.078125 -5.984375 3.421875 -5.828125 C 3.765625 -5.671875 4.023438 -5.445312 4.203125 -5.15625 L 3.53125 -4.734375 C 3.363281 -4.929688 3.171875 -5.070312 2.953125 -5.15625 C 2.742188 -5.238281 2.519531 -5.28125 2.28125 -5.28125 C 2.113281 -5.28125 1.957031 -5.25 1.8125 -5.1875 C 1.675781 -5.132812 1.5625 -5.070312 1.46875 -5 C 1.382812 -4.925781 1.320312 -4.835938 1.28125 -4.734375 C 1.25 -4.640625 1.234375 -4.535156 1.234375 -4.421875 C 1.234375 -4.347656 1.242188 -4.273438 1.265625 -4.203125 C 1.296875 -4.128906 1.351562 -4.050781 1.4375 -3.96875 C 1.519531 -3.882812 1.640625 -3.804688 1.796875 -3.734375 C 1.960938 -3.660156 2.1875 -3.585938 2.46875 -3.515625 C 2.8125 -3.429688 3.097656 -3.335938 3.328125 -3.234375 C 3.554688 -3.140625 3.75 -3.023438 3.90625 -2.890625 C 4.28125 -2.585938 4.46875 -2.179688 4.46875 -1.671875 Z M 4.46875 -1.671875 "/></g></g></g><g fill="#373737" fill-opacity="1"><g transform="translate(180.922857, 261.507227)"><g><path d="M 2.09375 -5.25 L 2.09375 -0.71875 L 2.53125 -0.71875 L 2.53125 0 L 0.765625 0 L 0.765625 -0.71875 L 1.21875 -0.71875 L 1.21875 -5.25 L 0.765625 -5.25 L 0.765625 -5.984375 L 2.53125 -5.984375 L 2.53125 -5.25 Z M 2.09375 -5.25 "/></g></g></g><g fill="#373737" fill-opacity="1"><g transform="translate(188.840401, 261.507227)"><g><path d="M 5.625 -5.984375 L 5.625 0 L 4.734375 0 L 1.390625 -4.59375 L 1.390625 0 L 0.46875 0 L 0.46875 -5.984375 L 1.40625 -5.984375 L 4.734375 -1.359375 L 4.734375 -5.984375 Z M 5.625 -5.984375 "/></g></g></g><g fill="#373737" fill-opacity="1"><g transform="translate(199.560322, 261.507227)"><g><path d="M 4.125 -5.984375 L 4.125 -5.1875 L 1.34375 -5.1875 L 1.34375 -3.5625 L 3.828125 -3.5625 L 3.828125 -2.734375 L 1.34375 -2.734375 L 1.34375 -0.8125 L 4.125 -0.8125 L 4.125 0 L 0.46875 0 L 0.46875 -5.984375 Z M 4.125 -5.984375 "/></g></g></g><g fill="#373737" fill-opacity="1"><g transform="translate(208.794645, 261.507227)"><g><path d="M 4.46875 -1.671875 C 4.46875 -1.421875 4.414062 -1.1875 4.3125 -0.96875 C 4.207031 -0.757812 4.054688 -0.570312 3.859375 -0.40625 C 3.472656 -0.0820312 2.976562 0.078125 2.375 0.078125 C 1.894531 0.078125 1.460938 -0.015625 1.078125 -0.203125 C 0.703125 -0.398438 0.425781 -0.660156 0.25 -0.984375 L 1 -1.375 C 1.113281 -1.175781 1.289062 -1.019531 1.53125 -0.90625 C 1.769531 -0.800781 2.050781 -0.75 2.375 -0.75 C 3.1875 -0.75 3.59375 -1.054688 3.59375 -1.671875 C 3.59375 -1.796875 3.570312 -1.898438 3.53125 -1.984375 C 3.488281 -2.066406 3.425781 -2.144531 3.34375 -2.21875 C 3.132812 -2.382812 2.769531 -2.535156 2.25 -2.671875 C 1.9375 -2.753906 1.671875 -2.84375 1.453125 -2.9375 C 1.234375 -3.03125 1.050781 -3.144531 0.90625 -3.28125 C 0.550781 -3.5625 0.375 -3.9375 0.375 -4.40625 C 0.375 -4.644531 0.421875 -4.867188 0.515625 -5.078125 C 0.609375 -5.285156 0.738281 -5.460938 0.90625 -5.609375 C 1.082031 -5.765625 1.285156 -5.878906 1.515625 -5.953125 C 1.742188 -6.023438 2 -6.0625 2.28125 -6.0625 C 2.695312 -6.0625 3.078125 -5.984375 3.421875 -5.828125 C 3.765625 -5.671875 4.023438 -5.445312 4.203125 -5.15625 L 3.53125 -4.734375 C 3.363281 -4.929688 3.171875 -5.070312 2.953125 -5.15625 C 2.742188 -5.238281 2.519531 -5.28125 2.28125 -5.28125 C 2.113281 -5.28125 1.957031 -5.25 1.8125 -5.1875 C 1.675781 -5.132812 1.5625 -5.070312 1.46875 -5 C 1.382812 -4.925781 1.320312 -4.835938 1.28125 -4.734375 C 1.25 -4.640625 1.234375 -4.535156 1.234375 -4.421875 C 1.234375 -4.347656 1.242188 -4.273438 1.265625 -4.203125 C 1.296875 -4.128906 1.351562 -4.050781 1.4375 -3.96875 C 1.519531 -3.882812 1.640625 -3.804688 1.796875 -3.734375 C 1.960938 -3.660156 2.1875 -3.585938 2.46875 -3.515625 C 2.8125 -3.429688 3.097656 -3.335938 3.328125 -3.234375 C 3.554688 -3.140625 3.75 -3.023438 3.90625 -2.890625 C 4.28125 -2.585938 4.46875 -2.179688 4.46875 -1.671875 Z M 4.46875 -1.671875 "/></g></g></g><g fill="#373737" fill-opacity="1"><g transform="translate(218.290642, 261.507227)"><g><path d="M 4.46875 -1.671875 C 4.46875 -1.421875 4.414062 -1.1875 4.3125 -0.96875 C 4.207031 -0.757812 4.054688 -0.570312 3.859375 -0.40625 C 3.472656 -0.0820312 2.976562 0.078125 2.375 0.078125 C 1.894531 0.078125 1.460938 -0.015625 1.078125 -0.203125 C 0.703125 -0.398438 0.425781 -0.660156 0.25 -0.984375 L 1 -1.375 C 1.113281 -1.175781 1.289062 -1.019531 1.53125 -0.90625 C 1.769531 -0.800781 2.050781 -0.75 2.375 -0.75 C 3.1875 -0.75 3.59375 -1.054688 3.59375 -1.671875 C 3.59375 -1.796875 3.570312 -1.898438 3.53125 -1.984375 C 3.488281 -2.066406 3.425781 -2.144531 3.34375 -2.21875 C 3.132812 -2.382812 2.769531 -2.535156 2.25 -2.671875 C 1.9375 -2.753906 1.671875 -2.84375 1.453125 -2.9375 C 1.234375 -3.03125 1.050781 -3.144531 0.90625 -3.28125 C 0.550781 -3.5625 0.375 -3.9375 0.375 -4.40625 C 0.375 -4.644531 0.421875 -4.867188 0.515625 -5.078125 C 0.609375 -5.285156 0.738281 -5.460938 0.90625 -5.609375 C 1.082031 -5.765625 1.285156 -5.878906 1.515625 -5.953125 C 1.742188 -6.023438 2 -6.0625 2.28125 -6.0625 C 2.695312 -6.0625 3.078125 -5.984375 3.421875 -5.828125 C 3.765625 -5.671875 4.023438 -5.445312 4.203125 -5.15625 L 3.53125 -4.734375 C 3.363281 -4.929688 3.171875 -5.070312 2.953125 -5.15625 C 2.742188 -5.238281 2.519531 -5.28125 2.28125 -5.28125 C 2.113281 -5.28125 1.957031 -5.25 1.8125 -5.1875 C 1.675781 -5.132812 1.5625 -5.070312 1.46875 -5 C 1.382812 -4.925781 1.320312 -4.835938 1.28125 -4.734375 C 1.25 -4.640625 1.234375 -4.535156 1.234375 -4.421875 C 1.234375 -4.347656 1.242188 -4.273438 1.265625 -4.203125 C 1.296875 -4.128906 1.351562 -4.050781 1.4375 -3.96875 C 1.519531 -3.882812 1.640625 -3.804688 1.796875 -3.734375 C 1.960938 -3.660156 2.1875 -3.585938 2.46875 -3.515625 C 2.8125 -3.429688 3.097656 -3.335938 3.328125 -3.234375 C 3.554688 -3.140625 3.75 -3.023438 3.90625 -2.890625 C 4.28125 -2.585938 4.46875 -2.179688 4.46875 -1.671875 Z M 4.46875 -1.671875 "/></g></g></g></svg>